<?xml version="1.0" encoding="UTF-8" standalone="no"?>
<!-- Created with Inkscape (http://www.inkscape.org/) -->

<svg
   width="72.146324mm"
   height="86.995735mm"
   viewBox="0 0 72.146324 86.995735"
   version="1.1"
   id="svg1"
   xml:space="preserve"
   inkscape:version="1.3.1 (9b9bdc1480, 2023-11-25, custom)"
   sodipodi:docname="screenly-browser-extension-logo.svg"
   xmlns:inkscape="http://www.inkscape.org/namespaces/inkscape"
   xmlns:sodipodi="http://sodipodi.sourceforge.net/DTD/sodipodi-0.dtd"
   xmlns="http://www.w3.org/2000/svg"
   xmlns:svg="http://www.w3.org/2000/svg"><sodipodi:namedview
     id="namedview1"
     pagecolor="#ffffff"
     bordercolor="#000000"
     borderopacity="0.25"
     inkscape:showpageshadow="2"
     inkscape:pageopacity="0.0"
     inkscape:pagecheckerboard="0"
     inkscape:deskcolor="#d1d1d1"
     inkscape:document-units="mm"
     inkscape:zoom="0.27905818"
     inkscape:cx="-338.63906"
     inkscape:cy="326.09687"
     inkscape:window-width="1854"
     inkscape:window-height="1131"
     inkscape:window-x="0"
     inkscape:window-y="0"
     inkscape:window-maximized="1"
     inkscape:current-layer="layer1-5" /><defs
     id="defs1"><linearGradient
       id="paint0_linear_1055_114"
       x1="32.5173"
       y1="31.586"
       x2="90.304298"
       y2="39.676998"
       gradientUnits="userSpaceOnUse"><stop
         stop-color="#972EFF"
         id="stop1" /><stop
         offset="1"
         stop-color="#3153FC"
         id="stop2" /></linearGradient></defs><g
     inkscape:label="Layer 1"
     inkscape:groupmode="layer"
     id="layer1"
     transform="translate(-64.772723,-80.261777)"><g
       inkscape:label="Layer 1"
       id="layer1-5"
       transform="matrix(2.6304223,0,0,2.6304223,-91.241301,-42.898717)"><g
         style="fill:none"
         id="g1"
         transform="matrix(0.26458333,0,0,0.26458333,59.311398,46.821567)"><path
           fill-rule="evenodd"
           clip-rule="evenodd"
           d="m 3.55416,74.6833 16.53514,9.5432 c 0.7097,0.4028 1.6017,0.4412 2.3594,0 0.7577,-0.4316 1.1797,-1.2277 1.1797,-2.0429 0.0953,-2.7477 0.0235,-5.5901 -0.0487,-8.4505 C 23.2739,61.6267 22.9599,49.1955 35.272,42.2365 l 47.5528,-27.469 c 2.1474,-1.2381 4.7715,-1.3898 7.0398,-0.3702 0.3124,0.1716 0.5555,0.2974 0.7194,0.3702 -0.235,-0.137 -0.4751,-0.2604 -0.7194,-0.3702 -1.1287,-0.62 -3.1609,-1.8375 -5.6226,-3.3124 h -1e-4 C 76.6203,6.51863 64.8818,-0.514057 63.0959,0.0835266 61.9202,-1.12326 41.6088,11.004 26.8424,19.8206 h -10e-5 C 18.8412,24.5978 12.4681,28.403 11.6491,28.5884 4.71468,32.3769 -0.186383,40.865 0.00543933,48.7681 V 68.5354 C -0.0521074,70.9428 1.43452,73.5228 3.54456,74.6737 Z M 90.4305,38.247 c 0,0.8152 -0.422,1.6017 -1.1797,2.0429 v 0.0095 C 88.589,41.8064 79.0203,35.964 72.5732,32.0276 l -1e-4,-10e-5 c -2.9904,-1.8259 -5.3092,-3.2417 -5.756,-3.3237 L 84.858,18.2782 c 2.3499,-1.4674 5.6588,0.4508 5.5725,3.2226 z m -60.8939,83.252 c 0.4178,2.839 23.373,-10.981 38.4331,-20.048 7.0679,-4.2556 12.3969,-7.4639 12.8411,-7.4118 0.3831,-0.2211 0.7579,-0.455 1.1237,-0.7012 -4.8176,-2.8638 -8.046,-8.1209 -8.046,-14.132 0,-9.0732 7.3552,-16.4285 16.4284,-16.4285 0.038,0 0.0759,10e-5 0.1138,4e-4 v -3.0366 c 0.0575,-2.2923 -1.362,-4.7476 -3.3761,-5.841 L 73.8764,46.2946 c -0.3098,-0.1712 -0.6575,-0.3854 -1.0285,-0.6139 l -5e-4,-3e-4 -9e-4,-5e-4 -2e-4,-1e-4 c -2.2474,-1.3842 -5.3472,-3.2933 -6.0386,0.6243 -0.1115,1.8329 -0.0505,4.2214 0.0165,6.8475 v 3e-4 2e-4 2e-4 2e-4 3e-4 c 0.1808,7.0896 0.4058,15.9109 -2.5965,20.2079 -2.0011,4.9762 -16.4401,12.838 -27.0649,18.623 l -3e-4,2e-4 c -4.6518,2.5328 -8.5724,4.6676 -10.3977,5.9877 1.2234,1.5594 1.0518,6.1254 0.8747,10.8364 -0.2171,5.777 -0.4424,11.77 1.8875,12.7 z M 3.89883,111.361 27.5122,125 c -2.4841,-1.439 -3.8844,-4.038 -3.8844,-6.723 -0.1118,-0.873 -0.0627,-2.839 -0.0045,-5.171 0.1217,-4.873 0.2833,-11.347 -0.8971,-12.813 C 22.27,98.627 14.2699,94.2168 8.69676,91.1444 l -4.6e-4,-3e-4 h -1.3e-4 l -9.2e-4,-5e-4 -2.2e-4,-1e-4 C 6.18474,89.7596 4.16711,88.6473 3.55355,88.1797 2.0957,87.2397 -0.0814872,88.4866 0.0144241,90.2226 v 14.4054 c 0,2.686 1.3907159,5.285 3.8844059,6.724 z"
           fill="url(#paint0_linear_1055_114)"
           id="path1"
           style="fill:url(#paint0_linear_1055_114)" /></g><g
         style="fill:none"
         id="g2"
         transform="matrix(0.26458333,0,0,0.26458333,79.771864,64.251738)"><path
           fill-rule="evenodd"
           clip-rule="evenodd"
           d="m 13.555,26.2218 c 7.057,0 12.7777,-5.7208 12.7777,-12.7777 0,-7.05694 -5.7207,-12.777718 -12.7777,-12.777718 -7.05689,0 -12.777656,5.720778 -12.777656,12.777718 0,7.0569 5.720766,12.7777 12.777656,12.7777 z M 10.8884,8.88856 c 0,-1.46486 1.2018,-2.66665 2.6666,-2.66665 1.4649,0 2.6667,1.20179 2.6667,2.66665 h 3.3333 c 0.1768,2e-5 0.3464,0.07027 0.4714,0.19528 0.125,0.12502 0.1952,0.29458 0.1953,0.47139 v 2.78387 c 0,0.1069 -0.0257,0.2123 -0.075,0.3072 -0.0493,0.0949 -0.1206,0.1766 -0.2081,0.2381 -0.0874,0.0615 -0.1884,0.1011 -0.2944,0.1154 -0.106,0.0144 -0.2138,0.003 -0.3145,-0.0331 -0.1422,-0.0509 -0.2916,-0.0774 -0.4427,-0.0782 -0.7436,7e-4 -1.332,0.5895 -1.332,1.3334 0,0.7442 0.5891,1.3333 1.3333,1.3333 0.1511,-5e-4 0.3005,-0.0262 0.4427,-0.0768 0.1006,-0.0359 0.2083,-0.0471 0.3141,-0.0326 0.1058,0.0144 0.2066,0.0541 0.2939,0.1156 0.0873,0.0615 0.1585,0.1431 0.2077,0.2378 0.0492,0.0948 0.0749,0.2 0.075,0.3068 v 2.7825 c -10e-5,0.1768 -0.0703,0.3464 -0.1953,0.4714 -0.125,0.125 -0.2946,0.1953 -0.4714,0.1953 h -4.1172 c -0.1069,0 -0.2123,-0.0257 -0.3072,-0.075 -0.0949,-0.0493 -0.1765,-0.1206 -0.2381,-0.2081 -0.0615,-0.0874 -0.1011,-0.1884 -0.1154,-0.2944 -0.0144,-0.1059 -0.003,-0.2138 0.0331,-0.3144 0.051,-0.1423 0.0774,-0.2916 0.0782,-0.4428 -7e-4,-0.7436 -0.5895,-1.332 -1.3334,-1.332 -0.7438,0 -1.3326,0.5884 -1.3333,1.332 3e-4,0.1515 0.026,0.3014 0.0768,0.4441 0.0359,0.1005 0.0471,0.2082 0.0326,0.314 -0.0144,0.1058 -0.0541,0.2066 -0.1156,0.2939 -0.0615,0.0873 -0.143,0.1585 -0.2378,0.2077 -0.0948,0.0492 -0.2,0.0749 -0.3068,0.075 H 7.55508 c -0.17681,0 -0.34636,-0.0703 -0.47138,-0.1953 -0.12502,-0.125 -0.19527,-0.2946 -0.19528,-0.4714 v -2.7838 c -10e-6,-0.107 0.0257,-0.2123 0.07496,-0.3072 0.04926,-0.0949 0.12063,-0.1766 0.20809,-0.2382 0.08745,-0.0615 0.18842,-0.1011 0.29439,-0.1154 0.10597,-0.0143 0.21383,-0.0029 0.31448,0.0332 0.14223,0.0509 0.29163,0.0774 0.4427,0.0781 0.74365,-7e-4 1.33202,-0.5895 1.33202,-1.3333 0,-0.7443 -0.58905,-1.3334 -1.33332,-1.3334 -0.15103,5e-4 -0.30042,0.0262 -0.44271,0.0769 C 7.67846,13.0012 7.57074,13.0124 7.46495,12.998 7.35915,12.9835 7.25837,12.9439 7.17109,12.8824 7.08381,12.8209 7.01258,12.7393 6.96338,12.6445 6.91419,12.5497 6.88848,12.4445 6.88842,12.3378 V 9.55523 C 6.88843,9.37842 6.95868,9.20886 7.0837,9.08384 7.20872,8.95883 7.37827,8.88858 7.55508,8.88856 Z m 4,-0.0013 c -7e-4,-0.74363 -0.5895,-1.33202 -1.3334,-1.33202 -0.7438,0 -1.3326,0.58839 -1.3333,1.33202 3e-4,0.15148 0.026,0.3014 0.0768,0.44401 0.0359,0.10058 0.0471,0.20829 0.0326,0.31409 -0.0144,0.10579 -0.0541,0.20657 -0.1156,0.29385 -0.0615,0.08729 -0.143,0.15849 -0.2378,0.20769 -0.0948,0.0492 -0.2,0.0749 -0.3068,0.075 H 8.22174 v 1.3333 c 1.46485,0 2.66666,1.2018 2.66666,2.6667 0,1.4648 -1.20181,2.6666 -2.66666,2.6666 v 1.3333 h 2.66666 c 0,-1.4648 1.2018,-2.6666 2.6666,-2.6666 1.4649,0 2.6667,1.2018 2.6667,2.6666 h 2.6666 v -1.3333 c -1.4648,0 -2.6666,-1.2018 -2.6666,-2.6666 0,-1.4649 1.2018,-2.6667 2.6666,-2.6667 v -1.3333 h -3.4505 c -0.1069,0 -0.2123,-0.0257 -0.3072,-0.075 C 15.0357,10.0977 14.9541,10.0263 14.8925,9.93884 14.831,9.85139 14.7914,9.75042 14.7771,9.64445 14.7627,9.53848 14.7741,9.43062 14.8102,9.32997 14.8612,9.18776 14.8876,9.03844 14.8884,8.88726 Z"
           fill="#3253fc"
           id="path1-5" /></g></g></g></svg>
