<?xml version="1.0" encoding="UTF-8" standalone="no"?>
<!-- Created with Inkscape (http://www.inkscape.org/) -->

<svg
   width="107.5643mm"
   height="33.072918mm"
   viewBox="0 0 107.5643 33.072918"
   version="1.1"
   id="svg1"
   xml:space="preserve"
   inkscape:version="1.3.1 (9b9bdc1480, 2023-11-25, custom)"
   sodipodi:docname="screenly-extension-logo.svg"
   xmlns:inkscape="http://www.inkscape.org/namespaces/inkscape"
   xmlns:sodipodi="http://sodipodi.sourceforge.net/DTD/sodipodi-0.dtd"
   xmlns="http://www.w3.org/2000/svg"
   xmlns:svg="http://www.w3.org/2000/svg"><sodipodi:namedview
     id="namedview1"
     pagecolor="#ffffff"
     bordercolor="#000000"
     borderopacity="0.25"
     inkscape:showpageshadow="2"
     inkscape:pageopacity="0.0"
     inkscape:pagecheckerboard="0"
     inkscape:deskcolor="#d1d1d1"
     inkscape:document-units="mm"
     showgrid="true"
     inkscape:zoom="1.5785915"
     inkscape:cx="288.54837"
     inkscape:cy="96.28837"
     inkscape:window-width="1920"
     inkscape:window-height="1043"
     inkscape:window-x="0"
     inkscape:window-y="0"
     inkscape:window-maximized="1"
     inkscape:current-layer="layer1"><inkscape:grid
       id="grid1"
       units="mm"
       originx="-30.130013"
       originy="-30.685042"
       spacingx="0.99999998"
       spacingy="1"
       empcolor="#0099e5"
       empopacity="0.30196078"
       color="#0099e5"
       opacity="0.14901961"
       empspacing="5"
       dotted="false"
       gridanglex="30"
       gridanglez="30"
       visible="true" /></sodipodi:namedview><defs
     id="defs1"><linearGradient
       id="paint0_linear_1055_114"
       x1="32.5173"
       y1="31.586"
       x2="90.304298"
       y2="39.676998"
       gradientUnits="userSpaceOnUse"><stop
         stop-color="#972EFF"
         id="stop1" /><stop
         offset="1"
         stop-color="#3153FC"
         id="stop2" /></linearGradient></defs><g
     inkscape:label="Layer 1"
     inkscape:groupmode="layer"
     id="layer1"
     transform="translate(-30.130012,-30.685042)"><g
       style="fill:none"
       id="g1"
       transform="matrix(0.26458333,0,0,0.26458333,61.400119,33.926951)"><path
         fill-rule="evenodd"
         clip-rule="evenodd"
         d="M 22.3552,48.4369 C 14.773,48.4369 9.74402,44.1816 9.27981,37.8374 L 0.537109,37.6826 c 0.232107,10.677 8.665331,18.2591 21.740691,18.2591 11.6827,0 20.0386,-6.8858 20.0386,-16.4796 0.0774,-10.6769 -8.6653,-13.5396 -17.6401,-15.1643 -8.5106,-1.47 -14.0812,-2.6306 -14.0812,-8.2011 0,-5.1064 4.2553,-7.81431 10.3674,-7.81431 6.499,0 11.0638,2.50161 11.6828,7.99481 h 4.3713 4.3714 C 40.9237,6.52869 32.3358,0.777588 20.9625,0.777588 9.58928,0.777588 1.69764,7.35396 1.69764,16.7156 c 0,10.7543 8.51056,13.617 17.48536,15.1643 8.588,1.5474 14.2359,2.7853 14.2359,8.5106 0,5.1838 -4.6421,8.0464 -11.0637,8.0464 z M 46.7266,35.5932 c 0,12.2243 7.8142,20.348 19.7291,20.348 10.1353,0 16.7117,-5.6479 18.2591,-14.7001 h -8.5106 c -1.0058,4.6422 -4.5648,7.5822 -9.7485,7.5822 -6.7311,0 -11.1412,-5.4932 -11.1412,-13.2301 0,-7.7369 4.4101,-13.0754 11.1412,-13.0754 5.029,0 8.5879,2.94 9.6711,7.4274 h 8.588 c -1.5474,-8.8974 -8.0464,-14.5453 -18.027,-14.5453 -12.0696,0 -19.9612,7.969 -19.9612,20.1933 z M 111.02,15.8637 v 7.8143 h -3.714 c -7.4271,0 -9.8255,5.8027 -9.8255,11.9148 v 19.8839 h -8.3558 v -39.613 h 7.4274 l 0.1612,5.9574 c 2.0116,-3.3268 5.9507,-5.9574 12.4497,-5.9574 z m 38.53,18.4142 c -0.232,-11.6053 -8.124,-18.878 -19.574,-18.878 -11.451,0 -19.265,8.2011 -19.265,20.348 0,12.147 7.891,20.1933 20.425,20.1933 9.749,0 16.325,-5.9574 17.718,-13.7716 h -8.356 c -1.161,4.41 -4.874,6.9632 -9.981,6.9632 -6.576,0 -10.677,-4.4101 -11.063,-11.2185 V 37.45 h 29.864 c 0.155,-1.0831 0.232,-2.1663 0.232,-3.1721 z M 130.285,22.131 c 5.803,0 10.058,3.3268 10.755,9.2069 h -21.277 c 0.619,-5.6479 5.184,-9.2069 10.522,-9.2069 z m 42.94,-6.7311 c 11.45,0 19.342,7.2727 19.574,18.878 0,1.0058 -0.077,2.089 -0.232,3.1721 h -29.865 v 0.4643 c 0.387,6.8084 4.488,11.2185 11.064,11.2185 5.107,0 8.82,-2.5532 9.981,-6.9632 h 8.356 c -1.393,7.8142 -7.969,13.7716 -17.718,13.7716 -12.534,0 -20.425,-8.0463 -20.425,-20.1933 0,-12.1469 7.814,-20.348 19.265,-20.348 z m 11.063,15.938 c -0.696,-5.8801 -4.951,-9.2069 -10.754,-9.2069 -5.338,0 -9.903,3.559 -10.522,9.2069 z M 234.03,55.477 V 33.659 c 0,-13.6944 -7.427,-18.2591 -15.938,-18.2591 -6.421,0 -10.857,3.1979 -13.333,6.2927 l -0.284,-5.8285 h -7.272 V 55.477 h 8.356 V 35.5158 c 0,-8.0464 3.945,-12.9206 10.599,-12.9206 6.267,0 9.439,4.0232 9.439,11.528 V 55.477 Z M 246.816,1.23057 V 55.3889 H 238.46 V 1.23057 Z M 268.705,46.3343 257.641,15.7735 h -8.898 l 15.474,39.9225 -1.625,3.7911 c -1.315,3.2495 -2.011,3.7451 -5.261,3.7451 h -4.59 v 6.5158 h 7.685 c 5.803,0 7.505,-1.7503 9.981,-8.172 l 17.949,-45.8025 h -8.897 z"
         fill="#000212"
         id="path1" /><path
         d="M 3.26772,64.597 H 21.789 v 3.3222 H 6.88062 v 9.3021 H 19.2974 v 3.3222 H 6.88062 v 9.8006 H 22.3289 v 3.3222 H 3.26772 Z M 31.9483,82.786 24.4319,72.4872 h 4.0697 l 5.6477,7.8487 5.7308,-7.8487 h 3.779 l -7.558,10.2988 8.0979,10.8803 h -4.0697 l -6.2292,-8.5132 -6.2291,8.5132 h -3.779 z m 16.3155,5.3571 V 75.6018 h -3.8205 v -3.1146 h 3.8205 v -5.9384 h 3.4053 v 5.9384 h 5.357 v 3.1146 h -5.357 v 12.4998 c 0,1.7857 0.6229,2.4501 2.3255,2.4501 h 3.696 v 3.1146 H 53.787 c -4.0697,0 -5.5232,-1.7857 -5.5232,-5.5232 z m 10.5746,-5.0664 c 0,-6.5198 4.0697,-10.8387 10.0497,-10.8387 5.8139,0 9.8836,3.779 10.0497,10.0497 0,0.4568 -0.0416,0.9551 -0.0831,1.4535 H 62.4098 v 0.2907 c 0.1246,4.1112 2.7408,6.852 6.6859,6.852 2.99,0 5.3156,-1.578 6.0215,-4.3189 h 3.4468 c -0.8305,4.2359 -4.3189,7.3504 -9.2191,7.3504 -6.3537,0 -10.5065,-4.3604 -10.5065,-10.8387 z m 3.779,-2.1594 h 12.7905 c -0.3322,-3.6544 -2.9484,-5.6893 -6.4783,-5.6893 -3.1145,0 -5.98,2.2425 -6.3122,5.6893 z m 30.588,-8.6793 c 4.7757,0 8.5546,2.6163 8.5546,9.6344 V 93.6663 H 98.3548 V 82.0801 c 0,-4.402 -2.0348,-6.7275 -5.7308,-6.7275 -3.9866,0 -6.3952,2.9485 -6.3952,7.7241 V 93.6663 H 82.8235 V 72.4872 h 2.9485 l 0.4568,2.8654 C 87.4746,73.733 89.634,72.238 93.2054,72.238 Z m 12.1486,14.4516 h 3.405 c 0.125,2.4917 2.367,4.3189 5.814,4.3189 2.949,0 5.025,-1.2874 5.025,-3.2392 0,-2.6577 -2.284,-2.9484 -5.398,-3.3222 -4.61,-0.5813 -8.389,-1.4534 -8.389,-5.8553 0,-3.8621 3.53,-6.4368 8.181,-6.3953 4.776,0.0415 8.222,2.3256 8.555,6.7275 h -3.406 c -0.249,-2.1595 -2.284,-3.8206 -5.149,-3.8206 -2.866,0 -4.817,1.2874 -4.817,3.2392 0,2.3255 2.201,2.5332 5.191,2.9069 4.734,0.5814 8.596,1.5781 8.596,6.2707 0,3.9451 -3.738,6.3952 -8.389,6.3952 -5.398,0 -9.136,-2.5747 -9.219,-7.2258 z m 23.174,-22.3833 c 1.245,0 2.2,0.9136 2.2,2.2009 0,1.2874 -0.955,2.201 -2.2,2.201 -1.246,0 -2.201,-0.9136 -2.201,-2.201 0,-1.2873 0.955,-2.2009 2.201,-2.2009 z m -1.703,8.1809 h 3.405 v 21.1791 h -3.405 z m 17.829,21.4282 c -6.187,0 -10.506,-4.4019 -10.506,-10.8387 0,-6.4367 4.319,-10.8387 10.506,-10.8387 6.188,0 10.507,4.402 10.507,10.8387 0,6.4368 -4.319,10.8387 -10.507,10.8387 z m 0,-3.0315 c 4.194,0 7.018,-3.2807 7.018,-7.8072 0,-4.5265 -2.824,-7.8072 -7.018,-7.8072 -4.194,0 -7.018,3.2807 -7.018,7.8072 0,4.5265 2.824,7.8072 7.018,7.8072 z M 169.447,72.238 c 4.776,0 8.555,2.6163 8.555,9.6344 v 11.7939 h -3.405 V 82.0801 c 0,-4.402 -2.035,-6.7275 -5.731,-6.7275 -3.987,0 -6.395,2.9485 -6.395,7.7241 v 10.5896 h -3.405 V 72.4872 h 2.948 l 0.457,2.8654 c 1.246,-1.6196 3.405,-3.1146 6.976,-3.1146 z"
         fill="#000212"
         id="path2" /></g><g
       style="fill:none"
       id="g2"
       transform="matrix(0.26458333,0,0,0.26458333,50.503491,48.131398)"><path
         fill-rule="evenodd"
         clip-rule="evenodd"
         d="m 13.555,26.2218 c 7.057,0 12.7777,-5.7208 12.7777,-12.7777 0,-7.05694 -5.7207,-12.777718 -12.7777,-12.777718 -7.05689,0 -12.777656,5.720778 -12.777656,12.777718 0,7.0569 5.720766,12.7777 12.777656,12.7777 z M 10.8884,8.88856 c 0,-1.46486 1.2018,-2.66665 2.6666,-2.66665 1.4649,0 2.6667,1.20179 2.6667,2.66665 h 3.3333 c 0.1768,2e-5 0.3464,0.07027 0.4714,0.19528 0.125,0.12502 0.1952,0.29458 0.1953,0.47139 v 2.78387 c 0,0.1069 -0.0257,0.2123 -0.075,0.3072 -0.0493,0.0949 -0.1206,0.1766 -0.2081,0.2381 -0.0874,0.0615 -0.1884,0.1011 -0.2944,0.1154 -0.106,0.0144 -0.2138,0.003 -0.3145,-0.0331 -0.1422,-0.0509 -0.2916,-0.0774 -0.4427,-0.0782 -0.7436,7e-4 -1.332,0.5895 -1.332,1.3334 0,0.7442 0.5891,1.3333 1.3333,1.3333 0.1511,-5e-4 0.3005,-0.0262 0.4427,-0.0768 0.1006,-0.0359 0.2083,-0.0471 0.3141,-0.0326 0.1058,0.0144 0.2066,0.0541 0.2939,0.1156 0.0873,0.0615 0.1585,0.1431 0.2077,0.2378 0.0492,0.0948 0.0749,0.2 0.075,0.3068 v 2.7825 c -10e-5,0.1768 -0.0703,0.3464 -0.1953,0.4714 -0.125,0.125 -0.2946,0.1953 -0.4714,0.1953 h -4.1172 c -0.1069,0 -0.2123,-0.0257 -0.3072,-0.075 -0.0949,-0.0493 -0.1765,-0.1206 -0.2381,-0.2081 -0.0615,-0.0874 -0.1011,-0.1884 -0.1154,-0.2944 -0.0144,-0.1059 -0.003,-0.2138 0.0331,-0.3144 0.051,-0.1423 0.0774,-0.2916 0.0782,-0.4428 -7e-4,-0.7436 -0.5895,-1.332 -1.3334,-1.332 -0.7438,0 -1.3326,0.5884 -1.3333,1.332 3e-4,0.1515 0.026,0.3014 0.0768,0.4441 0.0359,0.1005 0.0471,0.2082 0.0326,0.314 -0.0144,0.1058 -0.0541,0.2066 -0.1156,0.2939 -0.0615,0.0873 -0.143,0.1585 -0.2378,0.2077 -0.0948,0.0492 -0.2,0.0749 -0.3068,0.075 H 7.55508 c -0.17681,0 -0.34636,-0.0703 -0.47138,-0.1953 -0.12502,-0.125 -0.19527,-0.2946 -0.19528,-0.4714 v -2.7838 c -10e-6,-0.107 0.0257,-0.2123 0.07496,-0.3072 0.04926,-0.0949 0.12063,-0.1766 0.20809,-0.2382 0.08745,-0.0615 0.18842,-0.1011 0.29439,-0.1154 0.10597,-0.0143 0.21383,-0.0029 0.31448,0.0332 0.14223,0.0509 0.29163,0.0774 0.4427,0.0781 0.74365,-7e-4 1.33202,-0.5895 1.33202,-1.3333 0,-0.7443 -0.58905,-1.3334 -1.33332,-1.3334 -0.15103,5e-4 -0.30042,0.0262 -0.44271,0.0769 C 7.67846,13.0012 7.57074,13.0124 7.46495,12.998 7.35915,12.9835 7.25837,12.9439 7.17109,12.8824 7.08381,12.8209 7.01258,12.7393 6.96338,12.6445 6.91419,12.5497 6.88848,12.4445 6.88842,12.3378 V 9.55523 C 6.88843,9.37842 6.95868,9.20886 7.0837,9.08384 7.20872,8.95883 7.37827,8.88858 7.55508,8.88856 Z m 4,-0.0013 c -7e-4,-0.74363 -0.5895,-1.33202 -1.3334,-1.33202 -0.7438,0 -1.3326,0.58839 -1.3333,1.33202 3e-4,0.15148 0.026,0.3014 0.0768,0.44401 0.0359,0.10058 0.0471,0.20829 0.0326,0.31409 -0.0144,0.10579 -0.0541,0.20657 -0.1156,0.29385 -0.0615,0.08729 -0.143,0.15849 -0.2378,0.20769 -0.0948,0.0492 -0.2,0.0749 -0.3068,0.075 H 8.22174 v 1.3333 c 1.46485,0 2.66666,1.2018 2.66666,2.6667 0,1.4648 -1.20181,2.6666 -2.66666,2.6666 v 1.3333 h 2.66666 c 0,-1.4648 1.2018,-2.6666 2.6666,-2.6666 1.4649,0 2.6667,1.2018 2.6667,2.6666 h 2.6666 v -1.3333 c -1.4648,0 -2.6666,-1.2018 -2.6666,-2.6666 0,-1.4649 1.2018,-2.6667 2.6666,-2.6667 v -1.3333 h -3.4505 c -0.1069,0 -0.2123,-0.0257 -0.3072,-0.075 C 15.0357,10.0977 14.9541,10.0263 14.8925,9.93884 14.831,9.85139 14.7914,9.75042 14.7771,9.64445 14.7627,9.53848 14.7741,9.43062 14.8102,9.32997 14.8612,9.18776 14.8876,9.03844 14.8884,8.88726 Z"
         fill="#3253fc"
         id="path1-5" /></g><g
       style="fill:none"
       id="g3"
       transform="matrix(0.26458333,0,0,0.26458333,30.130012,30.685042)"><path
         fill-rule="evenodd"
         clip-rule="evenodd"
         d="m 3.55416,74.6833 16.53514,9.5432 c 0.7097,0.4028 1.6017,0.4412 2.3594,0 0.7577,-0.4316 1.1797,-1.2277 1.1797,-2.0429 0.0953,-2.7477 0.0235,-5.5901 -0.0487,-8.4505 C 23.2739,61.6267 22.9599,49.1955 35.272,42.2365 l 47.5528,-27.469 c 2.1474,-1.2381 4.7715,-1.3898 7.0398,-0.3702 0.3124,0.1716 0.5555,0.2974 0.7194,0.3702 -0.235,-0.137 -0.4751,-0.2604 -0.7194,-0.3702 -1.1287,-0.62 -3.1609,-1.8375 -5.6226,-3.3124 h -1e-4 C 76.6203,6.51863 64.8818,-0.514057 63.0959,0.0835266 61.9202,-1.12326 41.6088,11.004 26.8424,19.8206 h -10e-5 C 18.8412,24.5978 12.4681,28.403 11.6491,28.5884 4.71468,32.3769 -0.186383,40.865 0.00543933,48.7681 V 68.5354 C -0.0521074,70.9428 1.43452,73.5228 3.54456,74.6737 Z M 90.4305,38.247 c 0,0.8152 -0.422,1.6017 -1.1797,2.0429 v 0.0095 C 88.589,41.8064 79.0203,35.964 72.5732,32.0276 l -1e-4,-10e-5 c -2.9904,-1.8259 -5.3092,-3.2417 -5.756,-3.3237 L 84.858,18.2782 c 2.3499,-1.4674 5.6588,0.4508 5.5725,3.2226 z m -60.8939,83.252 c 0.4178,2.839 23.373,-10.981 38.4331,-20.048 7.0679,-4.2556 12.3969,-7.4639 12.8411,-7.4118 0.3831,-0.2211 0.7579,-0.455 1.1237,-0.7012 -4.8176,-2.8638 -8.046,-8.1209 -8.046,-14.132 0,-9.0732 7.3552,-16.4285 16.4284,-16.4285 0.038,0 0.0759,10e-5 0.1138,4e-4 v -3.0366 c 0.0575,-2.2923 -1.362,-4.7476 -3.3761,-5.841 L 73.8764,46.2946 c -0.3098,-0.1712 -0.6575,-0.3854 -1.0285,-0.6139 l -5e-4,-3e-4 -9e-4,-5e-4 -2e-4,-1e-4 c -2.2474,-1.3842 -5.3472,-3.2933 -6.0386,0.6243 -0.1115,1.8329 -0.0505,4.2214 0.0165,6.8475 v 3e-4 2e-4 2e-4 2e-4 3e-4 c 0.1808,7.0896 0.4058,15.9109 -2.5965,20.2079 -2.0011,4.9762 -16.4401,12.838 -27.0649,18.623 l -3e-4,2e-4 c -4.6518,2.5328 -8.5724,4.6676 -10.3977,5.9877 1.2234,1.5594 1.0518,6.1254 0.8747,10.8364 -0.2171,5.777 -0.4424,11.77 1.8875,12.7 z M 3.89883,111.361 27.5122,125 c -2.4841,-1.439 -3.8844,-4.038 -3.8844,-6.723 -0.1118,-0.873 -0.0627,-2.839 -0.0045,-5.171 0.1217,-4.873 0.2833,-11.347 -0.8971,-12.813 C 22.27,98.627 14.2699,94.2168 8.69676,91.1444 l -4.6e-4,-3e-4 h -1.3e-4 l -9.2e-4,-5e-4 -2.2e-4,-1e-4 C 6.18474,89.7596 4.16711,88.6473 3.55355,88.1797 2.0957,87.2397 -0.0814872,88.4866 0.0144241,90.2226 v 14.4054 c 0,2.686 1.3907159,5.285 3.8844059,6.724 z"
         fill="url(#paint0_linear_1055_114)"
         id="path1-3"
         style="fill:url(#paint0_linear_1055_114)" /></g></g></svg>
